<svg id="visual" viewBox="0 0 1300 700" width="1300" height="700" xmlns="http://www.w3.org/2000/svg" xmlns:xlink="http://www.w3.org/1999/xlink" version="1.1"><path d="M0 438L54.2 420.3C108.3 402.7 216.7 367.3 325 349.7C433.3 332 541.7 332 650 349.5C758.3 367 866.7 402 975 416.2C1083.3 430.3 1191.7 423.7 1245.8 420.3L1300 417L1300 701L1245.8 701C1191.7 701 1083.3 701 975 701C866.7 701 758.3 701 650 701C541.7 701 433.3 701 325 701C216.7 701 108.3 701 54.2 701L0 701Z" fill="#b6b3b3" stroke-linecap="round" stroke-linejoin="miter"></path></svg>