<?xml version="1.0" encoding="UTF-8"?>
<!DOCTYPE svg PUBLIC "-//W3C//DTD SVG 1.1//EN" "http://www.w3.org/Graphics/SVG/1.1/DTD/svg11.dtd">
<!-- Creator: CorelDRAW 2021 (64-Bit) -->
<svg xmlns="http://www.w3.org/2000/svg" xml:space="preserve" width="26.4582mm" height="26.5958mm" version="1.1" style="shape-rendering:geometricPrecision; text-rendering:geometricPrecision; image-rendering:optimizeQuality; fill-rule:evenodd; clip-rule:evenodd"
viewBox="0 0 2645.82 2659.58"
 xmlns:xlink="http://www.w3.org/1999/xlink"
 xmlns:xodm="http://www.corel.com/coreldraw/odm/2003">
 <defs>
  <style type="text/css">
   <![CDATA[
    .str1 {stroke:black;stroke-width:105.83;stroke-linecap:round;stroke-linejoin:round;stroke-miterlimit:22.9256}
    .str0 {stroke:white;stroke-width:7.62;stroke-linecap:round;stroke-linejoin:round;stroke-miterlimit:22.9256}
    .fil1 {fill:none}
    .fil0 {fill:black}
    .fil10 {fill:#133C3C}
    .fil7 {fill:#142E2D}
    .fil11 {fill:#163838}
    .fil3 {fill:#172D2D}
    .fil9 {fill:#243939}
    .fil6 {fill:#25413E}
    .fil8 {fill:#2C4A4D}
    .fil4 {fill:#336666}
    .fil5 {fill:white}
    .fil2 {fill:white}
   ]]>
  </style>
 </defs>
 <g id="Layer_x0020_1">
  <metadata id="CorelCorpID_0Corel-Layer"/>
  <circle class="fil0 str0" cx="1279.55" cy="1307.41" r="943.16"/>
  <circle class="fil1 str1" cx="1281.23" cy="1305.05" r="1022.79"/>
  <g id="_2464449341920">
   <path class="fil2" d="M1263.7 1093.87c-7.31,-2.88 -10.26,-2.34 -17.98,1.26 -1.77,8.34 -1.3,14.04 8.44,14.17 5.63,0.07 7.99,-2.76 12.17,-6.06l3.16 -2.74c4.05,-0.62 13.62,-3 17.74,-3.33 7.96,14.38 29.31,19.94 24.63,-2.03 -16,-7.4 -14.57,4.68 -22.44,-9.03 -8.01,-15.59 2.17,-1.71 -11.33,-11.35 -6.49,-4.78 2.71,-3.5 -11.51,-0.56 2.12,9.17 2.84,6.5 2.57,8.42 -2.58,18.31 1.39,4.1 -5.45,11.25z"/>
   <path class="fil2" d="M1278.86 1075.08l1.63 -40.33c5.19,7.24 10.52,9.66 7.98,20.27 -1.44,6.06 -4.92,16.05 -9.61,20.06zm-46.83 -8.29l-1.29 4.47c-0.09,13.95 6.08,20.94 21.01,15.63 -6.65,-11.36 -2.81,6.28 -5.48,-12.19 17.59,0.21 21.16,0.68 18.21,18.56 6.84,-6.8 2.87,6.71 5.45,-10.7 0.27,-1.83 -0.45,0.7 -2.58,-8.01 14.23,-2.8 5.03,-4.02 11.51,0.53 13.51,9.17 3.32,-4.04 11.33,10.79l4.46 7.39 -1.54 -13.39c5.36,-3.39 8.48,-5.43 16.98,-4.62 5.31,11.37 1.22,5.01 -2.89,11.87 12.12,3.73 13.22,2.1 19.59,-4.2 3.33,-9.97 0.56,-17.63 -9.01,-20.75 -12.36,-4.05 -19.59,3.13 -26.75,6.35 1.95,-16.42 11.5,-18.49 -8.82,-41.89l-2.64 -2.73c-22.08,20.66 -13.9,31.26 -11.34,44.4 -18.26,-8.03 -17.62,-9.66 -36.2,-1.51z"/>
   <path class="fil3" d="M1278.86 1075.08c4.69,-4.01 8.17,-14 9.61,-20.06 2.54,-10.61 -2.79,-13.03 -7.98,-20.27l-1.63 40.33z"/>
   <path class="fil2" d="M580.98 1580.35l1400.04 -1.57c0,0 18.8,50.15 -47.02,76.8l-1289.21 -3.59c0,0 -74.87,9.54 -63.81,-71.64z"/>
   <path class="fil4" d="M599.11 1592.13c0,0 -3.39,40.66 31.17,48.11l568.94 0.66 729.63 2.03c0,0 40.2,-5.13 35.05,-51.5 0,0 -5.4,35.77 -39.45,41.15l-490.66 -1.37 -790.53 0c0,0 -34.87,1.42 -44.15,-39.08z"/>
   <path class="fil5" d="M891.12 1215.43l54.09 -18.03c51.83,-213.58 280.39,-225.93 460.77,-197.59 0,0 165.96,4.74 207.44,194.4l53.35 18.97c0,0 -36.75,-173.07 -139.88,-212.19 0,0 -46.23,-30.82 -149.35,-36.74 0,0 -248.93,-32.01 -365.1,48.6 0,0 -82.61,58.44 -121.32,197.59 -0.08,1.39 0,4.99 0,4.99z"/>
   <path class="fil2" d="M818.03 1253.38c0,0 16.92,12.82 26.15,30.77 0,0 104.72,-54.62 206.09,-63.59 0,0 185.69,-24.22 228.75,-77.15 0,0 60.56,49.2 126.09,53.1 0,0 263.32,46.39 309.71,84.59l2.82 2.01c0,0 16.01,-24.69 23.72,-28.74 0,0 -73.23,-60.7 -239.7,-78.44 0,0 -187.43,-26.06 -214.72,-81.83l-13.05 0c0,0 -28.48,47.46 -143.58,70.01 0,0 -254.62,35.65 -312.28,89.27z"/>
   <polygon class="fil2" points="1663.69,1486.64 1681.57,1486.64 1681.57,1280.32 1664.41,1271.73 "/>
   <polygon class="fil2" points="1621.04,1486.46 1638.92,1486.46 1638.92,1263.12 1621.74,1257.71 "/>
   <polygon class="fil2" points="1576.25,1486.21 1594.13,1486.21 1594.13,1250.67 1576.95,1244.37 "/>
   <polygon class="fil2" points="1531.46,1486.66 1549.34,1486.66 1549.34,1241.62 1532.16,1235.56 "/>
   <polygon class="fil2" points="1489.45,1485.72 1507.33,1485.72 1507.33,1231.9 1490.15,1223.57 "/>
   <polygon class="fil2" points="1446.51,1485.71 1464.39,1485.71 1464.39,1226.01 1447.21,1219.67 "/>
   <polygon class="fil2" points="1402.65,1485.7 1420.52,1485.7 1420.52,1213.73 1403.34,1208.31 "/>
   <polygon class="fil2" points="1358.78,1486.61 1376.66,1486.61 1376.66,1205.83 1359.49,1194.15 "/>
   <polygon class="fil2" points="1313.99,1486.59 1331.87,1486.59 1331.87,1189.97 1314.69,1183.02 "/>
   <polygon class="fil2" points="1289.7,1486.79 1271.82,1486.79 1271.82,1166.5 1280.26,1160.85 1289.02,1166.37 "/>
   <polygon class="fil2" points="810.82,1507.79 821.15,1497.46 1736.98,1496.04 1747.91,1504.43 "/>
   <polygon class="fil2" points="795.84,1517.64 806.5,1512.47 1751.86,1511.76 1763.15,1515.96 "/>
   <path class="fil2" d="M581.96 1574.86c0,0 0,-8.15 4.27,-11.65l1387.56 -1.55c0,0 5.12,3.91 5.12,13.03l-1396.95 0.17z"/>
   <path class="fil2" d="M596.35 1552.17c0,0 22.32,-21.73 60.49,-17.62l1234.88 1.24c0,0 54.14,-5.77 71.72,15.51l-1367.09 0.87z"/>
   <circle class="fil2" cx="699.38" cy="1374.4" r="166.56"/>
   <circle class="fil2" cx="1861.49" cy="1374.4" r="166.56"/>
   <circle class="fil3" cx="1861.49" cy="1374.4" r="126.81"/>
   <circle class="fil3" cx="697.07" cy="1378.56" r="126.81"/>
   <circle class="fil2" cx="1861.49" cy="1374.4" r="87.79"/>
   <circle class="fil2" cx="697.07" cy="1378.56" r="91.97"/>
   <path class="fil6" d="M830.15 1422.18c-13.64,56.67 -76.59,96.86 -133.93,104.25 16.91,1.14 37.41,-4.27 52.04,-9.66 78.56,-28.9 128.44,-124.55 80.91,-213.47 -9.88,-18.48 -46.17,-62.32 -70.87,-61.66 9.34,9.05 15.13,6.14 38.5,30.24 11.78,12.15 18.84,21.31 27.1,38.65 15.34,32.19 21.34,90.47 6.25,111.65z"/>
   <path class="fil7" d="M566.93 1446.43c12.08,7.38 12.83,21.41 38,36.04 -5.11,-6.53 -11.29,-10.29 -16.88,-17.38 -17.19,-21.83 -30.72,-48.43 -32.44,-78.26 -3.49,-60.79 28.15,-83.36 38.48,-99.25 3.14,-4.82 1.47,-1.26 2.78,-6.78 -20.01,19.26 -36.11,33.85 -44.95,70.56 -3.75,15.53 -4.22,34.92 -0.66,51.94 3.61,17.2 13.49,30.29 15.67,43.13z"/>
   <path class="fil6" d="M1997.2 1420.32c-13.64,56.67 -76.59,96.86 -133.93,104.25 16.91,1.14 37.42,-4.27 52.04,-9.65 78.56,-28.91 128.45,-124.56 80.91,-213.48 -9.88,-18.48 -46.17,-62.32 -70.87,-61.66 9.34,9.05 15.13,6.14 38.5,30.24 11.79,12.15 18.84,21.31 27.1,38.65 15.34,32.19 21.34,90.48 6.25,111.65z"/>
   <path class="fil7" d="M1732.13 1439.94c12.08,7.39 12.83,21.42 38,36.04 -5.11,-6.52 -11.29,-10.28 -16.88,-17.37 -17.19,-21.84 -30.72,-48.43 -32.43,-78.26 -3.5,-60.79 28.14,-83.37 38.47,-99.25 3.14,-4.82 1.47,-1.26 2.79,-6.78 -20.02,19.26 -36.11,33.85 -44.96,70.56 -3.74,15.53 -4.22,34.92 -0.65,51.93 3.6,17.2 13.48,30.29 15.66,43.13z"/>
   <path class="fil2" d="M1906.55 1536.77c0,0 79.34,-11.31 85.56,59.01l85.48 0c0,0 -1.24,-45.5 -60.12,-74.33 0,0 -25.34,-16.22 -46.29,-16.22l-3.2 -0.17c0,0 -35.79,27.5 -61.43,30.6l0 1.11z"/>
   <path class="fil2" d="M652.55 1534.6c0,0 -79.34,-11.31 -85.56,59.02l-85.47 0c0,0 1.23,-45.5 60.11,-74.33 0,0 25.35,-16.22 46.29,-16.22l3.2 -0.17c0,0 35.79,27.5 61.43,30.59l0 1.11z"/>
   <path class="fil8" d="M529.07 1585.18c-9.69,1.78 -21.39,-1.16 -31.84,-1.64 1.74,-10.41 6.22,-20.79 12.47,-24.63 -3,-6.37 0.56,-6.58 -7.65,1.94 -6.33,6.57 -2.61,1.61 -6.57,8.45 -4.22,7.29 -6.74,11.39 -6.55,20.23l42.77 -0.09c-3.62,-1.32 -0.37,-0.71 -2.63,-4.26z"/>
   <path class="fil9" d="M2047.92 1554.62c5.08,4.49 16.09,21.95 15.8,32.87 -3.35,0.37 -8.74,0.59 -11.68,1.12 -3.61,0.66 -3.88,0.76 -7.22,1.96l28.88 3.63c-5.78,-28.5 -17.36,-31.05 -25.78,-39.58z"/>
   <path class="fil6" d="M1603.71 1107.41c-0.85,-16.02 -26.46,-49.08 -37.14,-60.42 -10.68,-11.35 -45.52,-40.18 -63.8,-41.94 54.99,31.17 71.49,58.33 100.94,102.36z"/>
   <path class="fil9" d="M966.51 1102.52c0.92,-9.56 1.39,-5.07 7.43,-13.68 9.52,-13.54 22.05,-26.37 34.29,-36.48 19.32,-15.96 34.5,-24.69 58.24,-37.44 -16.52,-0.6 -51.89,25.24 -62.33,33.54 -10.19,8.1 -27.44,28.93 -33.96,39.46 -1.13,1.82 -4.93,6.35 -5.34,7.27 -5.29,12.09 -1.99,4.03 1.67,7.33z"/>
   <path class="fil10" d="M694.84 1439.57l2.03 -0.68c2.88,-13.21 -3.33,-50.74 -2.58,-69.58 0.84,-20.85 7.04,-42.54 7.08,-60.08 -2.41,7.84 -7.54,15.72 -10.87,26.55 -14.37,46.71 0,72.41 4.34,103.79z"/>
   <path class="fil6" d="M728.83 1425.78c-1.43,-16.34 -4.44,-29.54 -4.18,-46.68 0.27,-17.69 2.87,-28.05 4.46,-44.52 -17.94,21.99 -16.02,67.25 -0.28,91.2z"/>
   <path class="fil11" d="M660.36 1348.76c1.5,9.19 -3.6,24.95 -2.63,37.78 1.04,13.88 6.45,24.23 6.73,35.08 5.3,-5.08 5.91,10.13 1.9,-20.44 -1.08,-8.14 -1.47,-16.32 -1.25,-24.54 0.43,-15.78 3.99,-28.92 4.86,-43.47l-9.61 15.59z"/>
   <path class="fil10" d="M1863.52 1439.57l2.03 -0.68c2.88,-13.21 -3.34,-50.74 -2.58,-69.58 0.83,-20.85 7.04,-42.54 7.07,-60.08 -2.41,7.84 -7.54,15.72 -10.87,26.55 -14.37,46.71 0,72.41 4.35,103.79z"/>
   <path class="fil6" d="M1897.5 1425.78c-1.43,-16.34 -4.43,-29.54 -4.17,-46.68 0.26,-17.69 2.86,-28.05 4.46,-44.52 -17.94,21.99 -16.02,67.25 -0.29,91.2z"/>
   <path class="fil11" d="M1829.04 1348.76c1.49,9.19 -3.6,24.95 -2.64,37.78 1.05,13.88 6.46,24.23 6.74,35.08 5.3,-5.08 5.91,10.13 1.89,-20.44 -1.07,-8.14 -1.47,-16.32 -1.25,-24.54 0.43,-15.78 3.99,-28.92 4.87,-43.47l-9.61 15.59z"/>
   <g>
    <path class="fil2" d="M1260.89 886.63c-8.02,10.25 -6.84,15.66 -21.74,22 -15.61,6.64 -24.59,-0.03 -36.4,-1.43 -7.02,-1.39 -5.12,-1.68 -10.38,-2.92l-10.9 -3.74c-4.72,0.78 -14.44,8.52 -13.56,14.8 0.84,5.92 8.44,4.9 17.1,9.1 -14.87,2.83 0.41,-6.28 -22.36,1.88 -5.8,2.07 -6.62,4.02 -13.98,4.86 3.47,4.55 -5.57,6.68 1.62,7.7 0.69,0.1 -3.61,0.04 -6.06,10.82l9.4 2.7c11.67,3.09 14.33,0.09 27.42,-1.13 0.79,4.98 2.91,1.91 4.47,3.87 4.58,2.49 6.06,0.56 7.34,19.56l12.58 -3.63c17.67,-4.88 16.03,3.76 34.05,-9.71 0.87,-0.66 1.79,-1.59 2.3,-1.33 0,15.06 -0.88,1.12 4.88,7.33l93.8 1.12c2.7,0.32 9.42,0.62 15.13,-0.17l15.83 -3.39c7.51,-6.06 1.12,-9.9 13.46,-9.86 12.73,0.04 12.63,1.91 22.55,-2.96l19.47 -6.18c28.48,2.16 5.16,-3.29 21.88,-9.19l0.13 -14.96c-13.5,12.21 -10.96,11.63 -18.34,10.84 -39.69,-4.26 -17.71,2.21 -42.59,-17.3l7.18 -2.34 0.85 0.57 -3.89 -2.84c0.29,0.21 -7.5,0 -2.75,-1.64l-8.46 -4.51c-1.44,-1 -2.72,-2.69 -3.37,-3.65 -6.4,5.25 -3.46,2.93 -8.29,5.75l-7.07 4.63c-0.39,0.26 -1.08,0.64 -1.44,0.87 -0.34,0.21 -1.43,0.17 -1.75,0.35l-33.88 4.67c-0.26,-0.08 -3.1,-1.1 -3.65,-1.38l-5.31 -3.82c-0.36,-0.44 -0.8,-1.16 -1.1,-1.61 -0.32,-0.48 -0.68,-1.45 -0.92,-1.87 -1.72,-3 -1.4,-1.13 -1.4,-4.31 -3.77,-8.16 -8.62,-7.41 -12.47,-22.45 -9.81,-12.4 -2.27,-19.41 -2.21,-19.54 4.56,0.55 4.04,4.25 12.22,8.84l3.52 -7.16c11.25,-11.1 15.83,7.65 15.85,7.67 5.77,-28.8 5.91,-17.73 9.97,-33.82 -11.42,-2.62 -6.22,0.97 -9.78,-6.93 -0.72,0.66 -1.29,1.55 -1.85,2.27l-8.75 10.36c-11.08,-3.72 0.38,0.67 -5.28,-10.62 -5.47,-10.89 5.51,-6.15 -13.31,-7.49 -10.81,-0.77 -9.52,2.08 -16.62,-5.49l-5.57 -4.12c-9.09,7.32 -11.51,-7 -7.33,12.23 -8.54,0.61 -7.05,0.46 -13.54,3.08 -7.6,-5.73 -4.34,-23.64 -22.33,-7.96 -0.68,-0.25 -2.75,5.69 -5.5,5.09 5.42,21.36 -2.12,12.2 1.78,30.49l3.5 14.38c1,5.17 0.93,8.54 2.66,13.22 5.85,0.23 7.05,-0.32 13.05,-8.53 0.3,-0.4 0.71,-1.04 0.97,-1.42l1.63 -2.59c2.88,-4.73 6.45,-9.33 12.88,-11.5 0,16.64 1.39,17.02 -5.34,24.44z"/>
    <path class="fil2" d="M1400.28 792.38c-6.76,11.72 -13.7,13.81 -12.93,34.76 -20.99,-2.03 -31.96,3.04 -36.73,21.87 -2.46,9.7 -4.18,42.45 -2.79,53.41 13.56,-3.76 10.26,-5.8 22.45,-12.82 -7.71,25.42 -34.14,24.77 -57.54,14.58 -2.43,3.11 -5.71,3.36 -3.99,6.36 0.24,0.43 4.06,1.27 4.38,1.75 0.3,0.45 -0.92,2.84 -0.56,3.28l3 3.81c0.55,0.28 9.29,1.56 9.55,1.64l37.09 -5.3c0.32,-0.19 -1.12,-2.68 -0.79,-2.9 0.37,-0.23 0.96,-0.7 1.34,-0.96l7.85 -4.63c4.83,-2.82 4.02,0.75 6.94,-6.33 0.65,0.96 -2.46,4.59 3.37,3.65l4.55 6.48c-13.76,3.12 3.8,3.87 -1.38,-0.33l11.93 2.84c-1.03,-5.38 -1.91,-7.01 -1.57,-12.27 0.47,-7.18 4.06,-9.92 4.07,-9.94 0.03,12.54 0.73,15.51 6.44,22.42l7.53 -8.22c12.01,-19.99 39.07,-48.71 21.12,-61.17l-10.52 -6.65 10.56 -14.05c-1.04,-17.66 -1.45,-33.83 -3.33,-51.98l-22.32 17c-5.99,3.9 -2.29,2.24 -7.72,3.7z"/>
    <path class="fil2" d="M1254.97 777.51c0.36,0.29 0.88,0.77 1.03,0.96 8.56,10.02 2.69,14.43 0.66,17.7 -8,12.89 -4.06,9.57 -0.36,22.22 -28.2,-5.01 -20.98,-6.54 -36.4,8.03l-0.85 3.96c-1.35,29.78 5.9,23.14 14.24,61.64l3.59 9.87c15.3,-5.34 17.98,-14.44 22.93,-24.58l1.08 9.32c9.05,-4.51 10.61,-10.93 9.06,-28.16 -6.43,2.17 -13.72,4.59 -16.6,9.32l-8.94 1.17c-0.26,0.39 4.33,8.34 4.03,8.74 -6,8.21 -4.89,5.17 -10.74,4.94 -1.73,-4.68 2.7,-4.46 1.7,-9.63l-6.06 -14.38c-3.9,-18.29 3.76,-7.21 -1.66,-28.57 2.75,0.6 7.47,0.72 8.16,0.98 15.71,5.83 10.21,4.45 18.78,0.99 6.49,-2.61 3.97,-0.92 12.51,-1.53 0.16,-23.06 -1.76,-1.32 7.33,-8.64l4.49 -0.95c7.1,7.56 6.89,5.94 17.7,6.71 18.82,1.34 5.15,-3.01 10.61,7.87 5.67,11.29 -3.1,6.26 7.98,9.99l8.75 -9.86c0.56,-0.71 1.13,0.71 1.85,0.04 3.56,7.91 -3.44,1.23 7.99,3.86 -4.07,16.09 -2.41,-0.63 -8.18,28.17 -0.02,-0.02 -4.6,-19.28 -15.85,-8.18l-4.29 5.88c-8.17,-4.6 -6.89,-6.24 -11.45,-6.79 -5.78,-5.79 -9.54,15.39 2.21,23.13l2.06 -8.15c2.63,16.5 10.75,24.9 25.62,28.68 1.45,-36.47 46.6,-95.62 -22.13,-83.99 7.21,-25.13 1.8,-10.93 -3.32,-26.45 -1.88,-5.7 4.54,-17.15 7.52,-22.63 1.57,-28.51 -15.03,-24.57 -22.25,-42.64l-8.25 -5.39c-3.71,5.62 -5.58,8.89 -9.26,12.95 -12.37,13.63 -23.47,13.67 -15.29,43.4z"/>
    <path class="fil2" d="M1080.9 886.49c6.21,9.81 8.14,6.66 14.72,14.2 4.62,5.28 7.48,11.72 11.03,18.52 7.34,14.06 11.62,27.98 18.56,42.2 7.5,0.21 11.6,-0.53 18.78,-1.06 2.54,-0.19 7.23,-0.57 9.63,-0.19 9.4,1.51 2.8,-0.88 7.75,3.15 5.38,0.35 8.18,0.62 15.18,-0.8 17.11,-3.47 9.01,-3.23 8.97,-7.37 -1.56,-1.96 -1.67,-0.9 -2.46,-5.88 -13.09,1.22 -16.2,3.33 -27.87,1.57l-9.06 -3.03c1.47,-6.46 -2.68,-5.27 13.19,-9.06 -0.4,0.12 -1.07,0.17 -1.25,0.14 -7.19,-1.02 -2.94,-1.13 -6.41,-5.68 7.37,-0.84 5.19,-2.35 10.99,-4.43 22.77,-8.15 13.97,4.75 28.17,-2.99 -8.67,-4.2 -16.26,-6.31 -17.1,-12.23 -0.88,-6.27 3.03,-10 7.75,-10.78l10.9 3.97c5.26,1.24 2.88,1.48 10.38,0.46l-3.81 -4.4c-0.36,-0.43 -0.85,-0.96 -1.22,-1.4l-6.13 -8.77c-3.18,-5.85 -4.63,-9.11 -4.61,-16.85 0.86,12.46 14.35,23.79 27.86,26.32 -1.31,-28.93 2.68,-66.67 -23.05,-74.41 13.3,27.36 -1.85,13.12 2.34,28.19 2.3,8.25 10.16,6.55 10.87,17.45 0.4,5.98 3.29,1.05 1.63,5.97 -8.55,3.95 -15.36,-10.04 -17.95,-13.05 -4.51,-5.23 -7.1,-4.09 -15.41,-4.09 -2,9.63 -3.35,9.63 -9.77,14.68 0,-19.54 4.77,-16.87 -0.01,-14.68 0.09,-0.06 1.75,-8.56 1.26,2.98 -0.32,7.55 -1.36,6.78 -6.17,16.59l-3.17 -3.66c-0.28,0.01 -2.43,3.68 -2.45,3.66 3.28,1.15 -5.36,-11.21 -2.35,3.2l0.64 6.9c-4.58,-8.99 1.11,2.61 -7.62,0.99 2.31,6.58 6.54,17.13 13.35,21.05 5.94,-7.87 6.27,-9.17 6.19,-22.72 9.51,12.63 2.52,25.99 -11.65,32.39 -18.17,8.2 -31.64,0.28 -34.35,-14.76 6.07,6.48 12.06,12.97 24.93,10.18 -0.34,-7.33 -14.23,-34.1 -19.14,-43.3 -4.06,-7.64 -5.29,-6.9 -8.35,-14.8 -22.61,-2.71 -15.1,-16.85 -41.13,-38.49 -14.6,-12.14 -10.83,-8.62 -13.24,-4.25 15.51,21.28 16.83,41.22 20.66,68.37z"/>
    <path class="fil2" d="M1122.55 862.23c4.12,7.99 13.23,25.83 21.08,30.59 8.73,1.62 3.04,-4.73 7.62,4.27l1.31 -12.16c-3.18,-13.42 1.96,-2.05 -1.32,-3.2 0.03,0.02 1.16,0.83 1.45,0.82l5.89 -0.82c0.66,-2.31 4.68,-4.65 4.92,-4.89 6.42,-5.05 9.11,2.34 11.12,-7.29 8.3,0 6.76,-3.27 11.71,-0.95 2.59,3.01 11.75,16.67 20.3,12.71 1.66,-4.91 1.46,-2 1.06,-7.98 -0.72,-10.9 -7.9,-9.2 -10.2,-17.45 -4.19,-15.07 8.67,-0.83 -4.63,-28.19l1.26 -1.19 -15.96 0c-0.44,-0.33 -0.81,-2.17 -0.95,-1.81l-2.65 -8.49c-5.6,-21.93 -18.89,-25.95 -43.15,-44.8 -2.52,28.72 -9.01,46.81 7.22,66.31 -9.93,10.13 -16.09,4.05 -16.08,24.52z"/>
    <path class="fil2" d="M1465.82 847.35c-10.39,23.53 -11.53,-1.29 -28.79,31.46 -4.9,9.29 -17.35,31.83 -16.22,41.04 11.55,0.59 18.14,-4.14 23.46,-10.68 -2.05,10.52 -8,17.95 -21.42,17.6 -13.13,-0.34 -20.26,-8.79 -27.68,-13.8l-12.76 2.34c22.65,19.07 6.48,19.3 48.17,17.3 6.48,3.02 1.5,6.94 17.46,-9.96l0.75 14.08c3.66,-2.83 -0.62,3.82 4.02,-5.31 6.63,-13.03 5.37,-24.09 20.06,-36.4 16.67,-13.96 2.74,-17 16.61,-51.55 4.07,-10.13 10.06,-24.25 14.76,-31.42 -15.92,5.82 -29.33,24.24 -38.42,35.3z"/>
   </g>
   <polygon class="fil2" points="898.2,1486.64 880.32,1486.64 880.32,1280.32 897.49,1271.73 "/>
   <polygon class="fil2" points="940.85,1486.46 922.97,1486.46 922.97,1263.12 940.15,1257.71 "/>
   <polygon class="fil2" points="985.64,1486.21 967.76,1486.21 967.76,1250.67 984.94,1244.37 "/>
   <polygon class="fil2" points="1030.43,1486.66 1012.55,1486.66 1012.55,1241.62 1029.73,1235.56 "/>
   <polygon class="fil2" points="1072.44,1485.72 1054.57,1485.72 1054.57,1231.9 1071.74,1223.57 "/>
   <polygon class="fil2" points="1115.38,1485.71 1097.5,1485.71 1097.5,1226.01 1114.68,1219.67 "/>
   <polygon class="fil2" points="1159.25,1485.7 1141.37,1485.7 1141.37,1213.73 1158.55,1208.31 "/>
   <polygon class="fil2" points="1203.11,1486.61 1185.23,1486.61 1185.23,1205.83 1202.4,1194.15 "/>
   <polygon class="fil2" points="1247.9,1486.59 1230.02,1486.59 1230.02,1189.97 1247.2,1183.02 "/>
  </g>
 </g>
</svg>
